<svg width="24" height="24" version="1.1" viewBox="0 0 6.35 6.35" xmlns="http://www.w3.org/2000/svg">
 <defs>
  <style type="text/css"/>
 </defs>
 <g transform="translate(0 -290.65)">
  <g>
   <rect x=".13283" y="290.79" width="6.0816" height="6.0789" ry=".61421" fill="#87cdde" stroke="#464646" stroke-linecap="round" stroke-width=".26408"/>
   <path d="m0.74694 294.7 4.8532-1e-4c0.34027-1e-5 0.61421 0 0.61421 0v1.5944c0 0.34027-0.27394 0.61421-0.61421 0.61421h-4.8532c-0.34027 0-0.61421-0.27394-0.61421-0.61421v-1.5944s0.27394 1.1e-4 0.61421 1e-4z" fill="#eef4d7" stroke="#464646" stroke-linecap="round" stroke-width=".26408"/>
   <text x="3.1714091" y="296.28857" fill="#000000" font-family="sans-serif" font-size="12.23px" letter-spacing="0px" stroke-width=".30574" text-align="center" text-anchor="middle" word-spacing="0px" style="line-height:1.25" xml:space="preserve"><tspan x="3.1714094" y="296.28857" font-family="Tahoma" font-size="1.4111px" font-weight="bold" letter-spacing=".13229px" stroke-width=".30574" text-align="center" text-anchor="middle" style="line-height:0">MySQL</tspan></text>
  </g>
  <path class="" d="m2.4907 293.1 0.6571-1e-5c0.10369 3e-5 0.18773 0.0841 0.18774 0.18775 1.2e-5 0.10367-0.083994 0.18773-0.18775 0.18773h-0.65709zm-0.093795 0.65708-6.1e-6 -2.0651c2.97e-5 -0.0519-0.041984-0.0939-0.093899-0.0939h-0.18774c-0.05178-2e-5 -0.09389 0.042-0.093898 0.0939l-1.77e-5 0.0939h-0.18773c-0.45414 0-0.83292 0.32249-0.9199 0.75096h-0.58202l2.4e-6 0.37548h0.58202c0.087 0.42846 0.46576 0.75095 0.9199 0.75095h0.18773l-1.76e-5 0.0939c-2.97e-5 0.0519 0.041984 0.0939 0.093899 0.0939h0.18774c0.05178 2e-5 0.09389-0.042 0.093905-0.0939zm0.093797-1.408h0.65709c0.10369 2e-5 0.18775-0.0841 0.18775-0.18774-1.2e-5 -0.10367-0.083968-0.18777-0.18774-0.18774h-0.6571z" stroke-width=".0058669"/>
  <path class="" d="m3.917 291.69 6e-6 2.0651c-2.8e-5 0.0519 0.04198 0.0939 0.0939 0.0939h0.18774c0.05178 2e-5 0.09389-0.042 0.0939-0.0939l1.5e-5 -0.0939 0.18773 1e-5c0.45414-1e-5 0.83292-0.3225 0.9199-0.75097h0.58202l-2e-6 -0.37547h-0.58202c-0.087-0.42846-0.46576-0.75096-0.9199-0.75096h-0.18773l2.1e-5 -0.0939c2.8e-5 -0.0519-0.04199-0.0939-0.0939-0.0939h-0.18774c-0.05178-2e-5 -0.09389 0.042-0.09391 0.0939z" fill="#808080" stroke-width=".0058669"/>
 </g>
</svg>
